<?xml version="1.0" encoding="UTF-8" standalone="no"?>
<!-- Created with Inkscape (http://www.inkscape.org/) -->

<svg
   xmlns:osb="http://www.openswatchbook.org/uri/2009/osb"
   xmlns:dc="http://purl.org/dc/elements/1.1/"
   xmlns:cc="http://creativecommons.org/ns#"
   xmlns:rdf="http://www.w3.org/1999/02/22-rdf-syntax-ns#"
   xmlns:svg="http://www.w3.org/2000/svg"
   xmlns="http://www.w3.org/2000/svg"
   xmlns:xlink="http://www.w3.org/1999/xlink"
   xmlns:sodipodi="http://sodipodi.sourceforge.net/DTD/sodipodi-0.dtd"
   xmlns:inkscape="http://www.inkscape.org/namespaces/inkscape"
   width="831.11859"
   height="502.16852"
   id="svg2"
   version="1.1"
   inkscape:version="0.48.1 "
   sodipodi:docname="logo.svg">
  <defs
     id="defs4">
    <linearGradient
       id="linearGradient3857">
      <stop
         style="stop-color:#00ff00;stop-opacity:1;"
         offset="0"
         id="stop3859" />
      <stop
         style="stop-color:#00ff00;stop-opacity:0;"
         offset="1"
         id="stop3861" />
    </linearGradient>
    <linearGradient
       id="linearGradient3819"
       osb:paint="gradient">
      <stop
         style="stop-color:#00ff00;stop-opacity:1;"
         offset="0"
         id="stop3821" />
      <stop
         style="stop-color:#00ff00;stop-opacity:0;"
         offset="1"
         id="stop3823" />
    </linearGradient>
    <inkscape:path-effect
       effect="spiro"
       id="path-effect3907"
       is_visible="true" />
    <inkscape:path-effect
       effect="spiro"
       id="path-effect3858"
       is_visible="true" />
    <inkscape:path-effect
       effect="spiro"
       id="path-effect3854"
       is_visible="true" />
    <linearGradient
       id="linearGradient3785"
       osb:paint="solid">
      <stop
         style="stop-color:#0000ff;stop-opacity:1;"
         offset="0"
         id="stop3787" />
    </linearGradient>
    <inkscape:path-effect
       effect="spiro"
       id="path-effect2992"
       is_visible="true" />
    <inkscape:path-effect
       effect="spiro"
       id="path-effect2992-2"
       is_visible="true" />
    <linearGradient
       inkscape:collect="always"
       xlink:href="#linearGradient3785-5"
       id="linearGradient3789-4"
       x1="139.5"
       y1="294"
       x2="320.5"
       y2="294"
       gradientUnits="userSpaceOnUse" />
    <linearGradient
       id="linearGradient3785-5"
       osb:paint="solid">
      <stop
         style="stop-color:#000000;stop-opacity:1;"
         offset="0"
         id="stop3787-2" />
    </linearGradient>
    <linearGradient
       id="linearGradient3785-5-3"
       osb:paint="solid">
      <stop
         style="stop-color:#000000;stop-opacity:1;"
         offset="0"
         id="stop3787-2-0" />
    </linearGradient>
    <inkscape:path-effect
       effect="spiro"
       id="path-effect3858-6"
       is_visible="true" />
    <inkscape:path-effect
       effect="spiro"
       id="path-effect3858-7"
       is_visible="true" />
    <inkscape:path-effect
       effect="spiro"
       id="path-effect3858-2"
       is_visible="true" />
    <linearGradient
       inkscape:collect="always"
       xlink:href="#linearGradient4671"
       id="linearGradient1475"
       gradientUnits="userSpaceOnUse"
       gradientTransform="matrix(0.74117077,0,0,0.79273214,475.76155,607.4352)"
       x1="150.96111"
       y1="192.35176"
       x2="112.03144"
       y2="137.27299" />
    <linearGradient
       id="linearGradient4671">
      <stop
         style="stop-color:#ffd43b;stop-opacity:1;"
         offset="0"
         id="stop4673" />
      <stop
         style="stop-color:#ffe873;stop-opacity:1"
         offset="1"
         id="stop4675" />
    </linearGradient>
    <linearGradient
       inkscape:collect="always"
       xlink:href="#linearGradient4689"
       id="linearGradient1478"
       gradientUnits="userSpaceOnUse"
       gradientTransform="matrix(0.562541,0,0,0.567972,-9.399749,-5.305317)"
       x1="26.648937"
       y1="20.603781"
       x2="135.66525"
       y2="114.39767" />
    <linearGradient
       id="linearGradient4689">
      <stop
         style="stop-color:#5a9fd4;stop-opacity:1;"
         offset="0"
         id="stop4691" />
      <stop
         style="stop-color:#306998;stop-opacity:1;"
         offset="1"
         id="stop4693" />
    </linearGradient>
    <linearGradient
       y2="114.39767"
       x2="135.66525"
       y1="20.603781"
       x1="26.648937"
       gradientTransform="matrix(0.74117077,0,0,0.79273214,475.76155,607.4352)"
       gradientUnits="userSpaceOnUse"
       id="linearGradient3041"
       xlink:href="#linearGradient4689"
       inkscape:collect="always" />
    <linearGradient
       y2="114.39767"
       x2="135.66525"
       y1="20.603781"
       x1="26.648937"
       gradientTransform="matrix(0.74117077,0,0,0.79273214,249.33102,285.04817)"
       gradientUnits="userSpaceOnUse"
       id="linearGradient3041-2"
       xlink:href="#linearGradient4689-7"
       inkscape:collect="always" />
    <linearGradient
       id="linearGradient4689-7">
      <stop
         style="stop-color:#5a9fd4;stop-opacity:1;"
         offset="0"
         id="stop4691-2" />
      <stop
         style="stop-color:#306998;stop-opacity:1;"
         offset="1"
         id="stop4693-7" />
    </linearGradient>
    <linearGradient
       id="linearGradient4671-3">
      <stop
         style="stop-color:#ffd43b;stop-opacity:1;"
         offset="0"
         id="stop4673-0" />
      <stop
         style="stop-color:#ffe873;stop-opacity:1"
         offset="1"
         id="stop4675-2" />
    </linearGradient>
  </defs>
  <sodipodi:namedview
     id="base"
     pagecolor="#ffffff"
     bordercolor="#666666"
     borderopacity="1.0"
     inkscape:pageopacity="0.0"
     inkscape:pageshadow="2"
     inkscape:zoom="0.38988115"
     inkscape:cx="426.27009"
     inkscape:cy="214.00928"
     inkscape:document-units="px"
     inkscape:current-layer="layer1"
     showgrid="true"
     inkscape:window-width="1149"
     inkscape:window-height="768"
     inkscape:window-x="89"
     inkscape:window-y="344"
     inkscape:window-maximized="0"
     fit-margin-top="10"
     fit-margin-left="10"
     fit-margin-right="10"
     fit-margin-bottom="10">
    <inkscape:grid
       type="xygrid"
       id="grid2988"
       empspacing="5"
       visible="true"
       enabled="true"
       snapvisiblegridlinesonly="true" />
  </sodipodi:namedview>
  <metadata
     id="metadata7">
    <rdf:RDF>
      <cc:Work
         rdf:about="">
        <dc:format>image/svg+xml</dc:format>
        <dc:type
           rdf:resource="http://purl.org/dc/dcmitype/StillImage" />
        <dc:title></dc:title>
      </cc:Work>
    </rdf:RDF>
  </metadata>
  <g
     inkscape:groupmode="layer"
     id="layer2"
     inkscape:label="Layer"
     style="display:inline"
     transform="translate(-44.275131,-276.86987)">
    <rect
       style="fill:#0000ff;fill-opacity:1;stroke:#000000;stroke-width:15;stroke-miterlimit:4;stroke-opacity:1;stroke-dasharray:none"
       id="rect3015"
       width="161.32309"
       height="171.16945"
       x="71.971939"
       y="294.36987" />
    <rect
       style="fill:#ffff00;fill-opacity:1;stroke:#000000;stroke-width:15;stroke-miterlimit:4;stroke-opacity:1;stroke-dasharray:none;display:inline"
       id="rect3015-7"
       width="161.32309"
       height="171.16945"
       x="262.00458"
       y="294.36987" />
    <rect
       style="fill:#00ff00;fill-opacity:1;fill-rule:evenodd;stroke:#000000;stroke-width:15;stroke-miterlimit:4;stroke-opacity:1;stroke-dasharray:none;display:inline"
       id="rect3015-77"
       width="161.32309"
       height="171.16945"
       x="486.64429"
       y="590.36896" />
    <rect
       style="fill:#ff0000;fill-opacity:1;fill-rule:evenodd;stroke:#000000;stroke-width:15;stroke-miterlimit:4;stroke-opacity:1;stroke-dasharray:none;display:inline"
       id="rect3015-7-2"
       width="161.32309"
       height="171.16945"
       x="680.67694"
       y="590.36896" />
    <path
       style="fill:none;stroke:#000000;stroke-width:25.11857986px;stroke-linecap:butt;stroke-linejoin:miter;stroke-opacity:1"
       d="m 66.834421,524.79179 785.999999,0"
       id="path3852"
       inkscape:path-effect="#path-effect3854"
       inkscape:original-d="m 66.834421,524.79179 785.999999,0"
       inkscape:connector-curvature="0" />
    <path
       style="fill:none;stroke:#000000;stroke-width:7.9558239px;stroke-linecap:butt;stroke-linejoin:miter;stroke-opacity:1"
       d="m 151.14648,473.53562 0,53.71464"
       id="path3856"
       inkscape:path-effect="#path-effect3858"
       inkscape:original-d="m 151.14648,473.53562 0,53.71464"
       inkscape:connector-curvature="0" />
    <path
       style="fill:none;stroke:#000000;stroke-width:7.9294796px;stroke-linecap:butt;stroke-linejoin:miter;stroke-opacity:1;display:inline"
       d="m 340.60327,473.5082 0,53.7343"
       id="path3856-8"
       inkscape:path-effect="#path-effect3858-6"
       inkscape:original-d="m 340.60327,473.5082 0,53.7343"
       inkscape:connector-curvature="0" />
    <path
       style="fill:none;stroke:#000000;stroke-width:7.92775011px;stroke-linecap:butt;stroke-linejoin:miter;stroke-opacity:1;display:inline"
       d="m 561.1279,537.56659 0,53.73559"
       id="path3856-1"
       inkscape:path-effect="#path-effect3858-7"
       inkscape:original-d="m 561.1279,537.56659 0,53.73559"
       inkscape:connector-curvature="0" />
    <path
       style="fill:none;stroke:#000000;stroke-width:7.92999649px;stroke-linecap:butt;stroke-linejoin:miter;stroke-opacity:1;display:inline"
       d="m 758.45868,537.56893 0,53.73391"
       id="path3856-5"
       inkscape:path-effect="#path-effect3858-2"
       inkscape:original-d="m 758.45868,537.56893 0,53.73391"
       inkscape:connector-curvature="0" />
    <path
       inkscape:connector-curvature="0"
       id="path46"
       style="fill:#646464;fill-opacity:1"
       d="m 770.15302,393.57328 c 0,-15.7818 -4.98753,-23.88397 -14.96258,-24.32764 -3.96895,-0.16901 -7.84422,0.40141 -11.61415,1.72185 -3.0089,0.97183 -5.03434,1.93311 -6.09976,2.90495 l 0,37.66927 c 6.38075,3.61271 12.04734,5.29229 16.98803,5.02821 10.45507,-0.62324 15.68846,-8.28175 15.68846,-22.99664 z m 12.3049,0.65493 c 0,8.01766 -2.08399,14.67264 -6.27539,19.96493 -4.67141,5.98948 -11.14583,9.07401 -19.42324,9.24303 -6.24026,0.17958 -12.66784,-1.58453 -19.28276,-5.28173 l 0,34.23615 -10.70093,-3.44368 0,-75.9935 c 1.75617,-1.94367 4.01577,-3.61269 6.7554,-5.02819 6.36905,-3.34862 14.1079,-5.07047 23.21658,-5.15497 l 0.1522,0.13732 c 8.32425,-0.095 14.74013,2.98946 19.24763,9.24302 4.2031,5.73596 6.31051,13.08813 6.31051,22.07762 z" />
    <path
       inkscape:connector-curvature="0"
       id="path48"
       style="fill:#646464;fill-opacity:1"
       d="m 847.85771,416.69668 c 0,10.7536 -1.19419,18.20083 -3.58258,22.34171 -2.40011,4.14087 -6.96614,7.44723 -13.70985,9.90852 -5.46754,1.94367 -11.37998,3.00001 -17.72561,3.17959 l -1.76788,-6.08454 c 6.451,-0.79226 10.99364,-1.58453 13.62789,-2.37678 5.18655,-1.58452 8.74573,-4.01411 10.70093,-7.26766 1.56884,-2.65143 2.34156,-7.71132 2.34156,-15.20081 l 0,-2.5141 c -7.31737,3.00002 -14.98599,4.48947 -23.00583,4.48947 -5.26851,0 -9.91652,-1.48945 -13.92058,-4.48947 -4.49581,-3.26411 -6.7437,-7.40499 -6.7437,-12.42262 l 0,-40.18338 10.70093,-3.30636 0,40.44746 c 0,4.32045 1.54543,7.64795 4.63629,9.98247 3.09086,2.33452 7.09494,3.45424 12.00051,3.36974 4.90556,-0.095 10.16236,-1.80636 15.74698,-5.15496 l 0,-47.18695 10.70094,0 0,52.46867 z" />
  </g>
  <g
     inkscape:label="Layer 1"
     inkscape:groupmode="layer"
     id="layer1"
     transform="translate(-44.275131,-305.23205)"
     style="display:inline">
    <text
       xml:space="preserve"
       style="font-size:102.2917099px;font-style:normal;font-weight:normal;line-height:125%;letter-spacing:0px;word-spacing:0px;fill:#000000;fill-opacity:1;stroke:none;font-family:Bitstream Vera Sans"
       x="459.58487"
       y="422.82794"
       id="text3899"
       sodipodi:linespacing="125%"
       transform="scale(0.95088033,1.051657)"><tspan
         sodipodi:role="line"
         id="tspan3901"
         x="459.58487"
         y="422.82794"
         style="font-style:normal;font-variant:normal;font-weight:bold;font-stretch:normal;font-family:Arial;-inkscape-font-specification:Arial Bold">PCAS</tspan></text>
    <path
       inkscape:connector-curvature="0"
       style="fill:url(#linearGradient3041);fill-opacity:1"
       d="m 567.8707,623.76978 c -6.03914,0.0298 -11.8064,0.57534 -16.881,1.52655 -14.94909,2.79773 -17.66326,8.65364 -17.66326,19.45292 l 0,14.26255 35.32655,0 0,4.75418 -35.32655,0 -13.25776,0 c -10.26687,0 -19.25687,6.53719 -22.06881,18.97311 -3.24355,14.2545 -3.38742,23.14952 0,38.0335 2.51112,11.07904 8.50808,18.97312 18.77496,18.97312 l 12.14608,0 0,-17.09763 c 0,-12.35201 10.08858,-23.24751 22.06879,-23.24751 l 35.28543,0 c 9.82218,0 17.66325,-8.56719 17.66325,-19.01675 l 0,-35.63457 c 0,-10.14181 -8.0765,-17.7603 -17.66325,-19.45292 -6.0686,-1.07015 -12.36527,-1.5563 -18.40443,-1.52655 z m -19.10434,11.47109 c 3.64898,0 6.62889,3.2083 6.62889,7.15309 -3e-5,3.93083 -2.97991,7.10946 -6.62889,7.10946 -3.66207,0 -6.62887,-3.17864 -6.62887,-7.10946 -10e-6,-3.94479 2.9668,-7.15309 6.62887,-7.15309 z"
       id="path1948"
       inkscape:transform-center-x="19.017103"
       inkscape:transform-center-y="-84.568593" />
    <path
       inkscape:connector-curvature="0"
       style="fill:url(#linearGradient1475);fill-opacity:1"
       d="m 608.34392,663.76598 0,16.61784 c 0,12.88357 -10.31094,23.72729 -22.06879,23.72729 l -35.28543,0 c -9.66525,0 -17.66326,8.76304 -17.66326,19.01675 l 0,35.63459 c 0,10.14179 8.32499,16.1071 17.66326,19.01674 11.18241,3.48317 21.90576,4.11267 35.28543,0 8.89357,-2.7278 17.66325,-8.2175 17.66325,-19.01674 l 0,-14.26256 -35.28539,0 0,-4.75418 35.28539,0 17.66329,0 c 10.26688,0 14.09274,-7.58635 17.66328,-18.97312 3.68823,-11.72255 3.53129,-22.99564 0,-38.0335 -2.5373,-10.82724 -7.38333,-18.97311 -17.66328,-18.97311 l -13.25775,0 z m -19.84546,90.24227 c 3.66206,0 6.62888,3.17865 6.62888,7.10948 -2e-5,3.94479 -2.96682,7.15308 -6.62888,7.15308 -3.649,0 -6.62887,-3.20829 -6.62887,-7.15308 0,-3.93083 2.97985,-7.10948 6.62887,-7.10948 z"
       id="path1950"
       inkscape:transform-center-x="-18.90674"
       inkscape:transform-center-y="-44.126455" />
  </g>
</svg>
